# xmcd CD database file generated by OrangeCD 6.0
#
# Track frame offsets:
#	150
#	17282
#	37888
#	56750
#	77792
#	100209
#	118046
#	139983
#	150570
#	165966
#	184962
#	199205
#
# Disc length: 3062 seconds
#
# Revision: 0
# Processed by: cddbd v1.5.2PL0 Copyright (c) Steve Scherf et al.
# Submitted via: OrangeCD 6.0
#
DISCID=950bf40c
DTITLE=Kris Dollimore - 02/01/78
DYEAR=1900
DGENRE=
TTITLE0=Groundhog
TTITLE1=Brother Ray
TTITLE2=The Enemy
TTITLE3=Miss Emma Jane
TTITLE4=Loved Up Blues
TTITLE5=The North Kent Post Industrial Hillstomp Blues
TTITLE6=Take What's Mine
TTITLE7=Cry For Me
TTITLE8=Caned
TTITLE9=Rollin' Stone
TTITLE10=T.V. Eye
TTITLE11=East of England
EXTD=
EXTT0=
EXTT1=
EXTT2=
EXTT3=
EXTT4=
EXTT5=
EXTT6=
EXTT7=
EXTT8=
EXTT9=
EXTT10=
EXTT11=
PLAYORDER=
